<svg viewBox="0 0 100 100" xmlns="http://www.w3.org/2000/svg"><defs><clipPath id="c15"><circle cx="50" cy="50" r="50"/></clipPath></defs><g clip-path="url(#c15)"><circle cx="50" cy="50" r="50" fill="#daeffe"/><ellipse cx="50" cy="96" rx="31" ry="20" fill="#0142aa"/><rect x="44" y="61" width="12" height="17" rx="3" fill="#fde3ce"/><path d="M 27 42 Q 25 60 32 64 L 36 52 Z" fill="#f0cf7a"/><path d="M 73 42 Q 75 60 68 64 L 64 52 Z" fill="#f0cf7a"/><circle cx="50" cy="44" r="22" fill="#fde3ce"/><path d="M 28 46 Q 25 20 50 19 Q 75 20 72 46 L 71 38 Q 70 25 50 25 Q 30 25 29 38 Z" fill="#f0cf7a"/><path d="M 50 21 Q 62 22 66 32 Q 58 26 50 27 Z" fill="#f7dfa0"/><circle cx="43" cy="43" r="3" fill="#3f7d4e"/><circle cx="57" cy="43" r="3" fill="#3f7d4e"/><circle cx="44.5" cy="41.5" r="1.2" fill="white" opacity="0.8"/><circle cx="58.5" cy="41.5" r="1.2" fill="white" opacity="0.8"/><path d="M 44 53 Q 50 59 56 53" stroke="#d19a76" stroke-width="1.8" fill="none" stroke-linecap="round"/></g></svg>