<svg viewBox="0 0 100 100" xmlns="http://www.w3.org/2000/svg"><defs><clipPath id="c11"><circle cx="50" cy="50" r="50"/></clipPath></defs><g clip-path="url(#c11)"><circle cx="50" cy="50" r="50" fill="#a8d2f6"/><ellipse cx="50" cy="96" rx="31" ry="20" fill="#f4f9ff"/><rect x="44" y="61" width="12" height="17" rx="3" fill="#8d5a3b"/><circle cx="50" cy="44" r="22" fill="#8d5a3b"/><rect x="28" y="27" width="8" height="14" rx="4" fill="#12100e"/><rect x="64" y="27" width="8" height="14" rx="4" fill="#12100e"/><ellipse cx="50" cy="24" rx="22" ry="7" fill="#12100e"/><path d="M 40 58 Q 50 63 60 58 L 60 62 Q 50 67 40 62 Z" fill="#12100e" opacity="0.85"/><circle cx="43" cy="43" r="3" fill="#12100e"/><circle cx="57" cy="43" r="3" fill="#12100e"/><circle cx="44.5" cy="41.5" r="1.2" fill="white" opacity="0.8"/><circle cx="58.5" cy="41.5" r="1.2" fill="white" opacity="0.8"/><path d="M 45 54 Q 50 58 55 54" stroke="#6b3f26" stroke-width="1.8" fill="none" stroke-linecap="round"/></g></svg>