<svg viewBox="0 0 100 100" xmlns="http://www.w3.org/2000/svg"><defs><clipPath id="c13"><circle cx="50" cy="50" r="50"/></clipPath></defs><g clip-path="url(#c13)"><circle cx="50" cy="50" r="50" fill="#026ecc"/><ellipse cx="50" cy="96" rx="31" ry="20" fill="#e76f51"/><path d="M 27 40 Q 26 18 50 18 Q 74 18 73 40 L 75 84 Q 63 91 50 91 Q 37 91 25 84 Z" fill="#e8c463"/><rect x="44" y="61" width="12" height="17" rx="3" fill="#fce4d0"/><circle cx="50" cy="45" r="22" fill="#fce4d0"/><path d="M 28 44 Q 26 19 50 19 Q 74 19 72 44 L 71 35 Q 69 25 50 25 Q 31 25 29 35 Z" fill="#e8c463"/><path d="M 34 25 Q 44 20 52 24 Q 43 23 36 29 Z" fill="#f2d685"/><circle cx="43" cy="44" r="3" fill="#4a6fa5"/><circle cx="57" cy="44" r="3" fill="#4a6fa5"/><circle cx="44.5" cy="42.5" r="1.2" fill="white" opacity="0.8"/><circle cx="58.5" cy="42.5" r="1.2" fill="white" opacity="0.8"/><path d="M 44 54 Q 50 60 56 54" stroke="#d19a76" stroke-width="1.8" fill="none" stroke-linecap="round"/></g></svg>