<svg viewBox="0 0 100 100" xmlns="http://www.w3.org/2000/svg"><defs><clipPath id="c8"><circle cx="50" cy="50" r="50"/></clipPath></defs><g clip-path="url(#c8)"><circle cx="50" cy="50" r="50" fill="#bfdffc"/><ellipse cx="50" cy="96" rx="31" ry="20" fill="#f4a261"/><rect x="25" y="36" width="8" height="52" rx="4" fill="#1a0a00"/><rect x="36" y="40" width="8" height="52" rx="4" fill="#1a0a00"/><rect x="56" y="40" width="8" height="52" rx="4" fill="#1a0a00"/><rect x="67" y="36" width="8" height="52" rx="4" fill="#1a0a00"/><rect x="44" y="61" width="12" height="17" rx="3" fill="#6b3a2a"/><circle cx="50" cy="44" r="22" fill="#6b3a2a"/><rect x="29" y="21" width="42" height="14" rx="7" fill="#1a0a00"/><circle cx="43" cy="43" r="3" fill="#1a0a00"/><circle cx="57" cy="43" r="3" fill="#1a0a00"/><circle cx="44.5" cy="41.5" r="1.2" fill="white" opacity="0.8"/><circle cx="58.5" cy="41.5" r="1.2" fill="white" opacity="0.8"/><path d="M 44 53 Q 50 59 56 53" stroke="#5a2018" stroke-width="1.8" fill="none" stroke-linecap="round"/></g></svg>