<svg viewBox="0 0 100 100" xmlns="http://www.w3.org/2000/svg"><defs><clipPath id="c4"><circle cx="50" cy="50" r="50"/></clipPath></defs><g clip-path="url(#c4)"><circle cx="50" cy="50" r="50" fill="#daeffe"/><ellipse cx="50" cy="96" rx="31" ry="20" fill="#e76f51"/><rect x="44" y="61" width="12" height="17" rx="3" fill="#d4956a"/><circle cx="50" cy="44" r="22" fill="#d4956a"/><path d="M 28 44 Q 26 20 50 20 Q 74 20 72 44 L 71 36 Q 69 26 50 26 Q 31 26 29 36 Z" fill="#2c1608"/><path d="M 34 24 Q 46 19 56 24 Q 46 22 37 28 Z" fill="#4a2a12"/><circle cx="29" cy="45" r="2.2" fill="#f2c14e"/><circle cx="71" cy="45" r="2.2" fill="#f2c14e"/><circle cx="43" cy="43" r="3" fill="#333"/><circle cx="57" cy="43" r="3" fill="#333"/><circle cx="44.5" cy="41.5" r="1.2" fill="white" opacity="0.8"/><circle cx="58.5" cy="41.5" r="1.2" fill="white" opacity="0.8"/><path d="M 44 53 Q 50 59 56 53" stroke="#9b6040" stroke-width="1.8" fill="none" stroke-linecap="round"/></g></svg>