<svg viewBox="0 0 100 100" xmlns="http://www.w3.org/2000/svg"><defs><clipPath id="c12"><circle cx="50" cy="50" r="50"/></clipPath></defs><g clip-path="url(#c12)"><circle cx="50" cy="50" r="50" fill="#e0f0fe"/><ellipse cx="50" cy="97" rx="31" ry="20" fill="#026ecc"/><rect x="44" y="62" width="12" height="17" rx="3" fill="#9c6644"/><circle cx="27" cy="34" r="10" fill="#241207"/><circle cx="38" cy="24" r="11" fill="#241207"/><circle cx="52" cy="20" r="11" fill="#241207"/><circle cx="65" cy="26" r="10" fill="#241207"/><circle cx="73" cy="37" r="9" fill="#241207"/><circle cx="24" cy="48" r="9" fill="#241207"/><circle cx="76" cy="50" r="9" fill="#241207"/><circle cx="24" cy="62" r="9" fill="#241207"/><circle cx="76" cy="63" r="9" fill="#241207"/><circle cx="28" cy="74" r="8" fill="#241207"/><circle cx="72" cy="75" r="8" fill="#241207"/><circle cx="50" cy="46" r="21" fill="#9c6644"/><ellipse cx="50" cy="28" rx="19" ry="8" fill="#241207"/><circle cx="43" cy="45" r="3" fill="#241207"/><circle cx="57" cy="45" r="3" fill="#241207"/><circle cx="44.5" cy="43.5" r="1.2" fill="white" opacity="0.8"/><circle cx="58.5" cy="43.5" r="1.2" fill="white" opacity="0.8"/><path d="M 44 55 Q 50 61 56 55" stroke="#77452a" stroke-width="1.8" fill="none" stroke-linecap="round"/></g></svg>