<svg viewBox="0 0 100 100" xmlns="http://www.w3.org/2000/svg"><defs><clipPath id="c17"><circle cx="50" cy="50" r="50"/></clipPath></defs><g clip-path="url(#c17)"><circle cx="50" cy="50" r="50" fill="#a8d2f6"/><path d="M 68 24 Q 84 32 80 58 Q 78 72 70 76 Q 74 58 70 44 Q 68 34 62 28 Z" fill="#2b1608"/><ellipse cx="50" cy="96" rx="31" ry="20" fill="#f4f9ff"/><rect x="44" y="61" width="12" height="17" rx="3" fill="#a06844"/><circle cx="50" cy="44" r="22" fill="#a06844"/><path d="M 28 46 Q 25 20 50 19 Q 75 20 72 46 L 71 38 Q 70 25 50 25 Q 30 25 29 38 Z" fill="#2b1608"/><circle cx="70" cy="26" r="5" fill="#2b1608"/><circle cx="43" cy="43" r="3" fill="#2b1608"/><circle cx="57" cy="43" r="3" fill="#2b1608"/><circle cx="44.5" cy="41.5" r="1.2" fill="white" opacity="0.8"/><circle cx="58.5" cy="41.5" r="1.2" fill="white" opacity="0.8"/><path d="M 44 53 Q 50 59 56 53" stroke="#7a4a2c" stroke-width="1.8" fill="none" stroke-linecap="round"/></g></svg>