<svg viewBox="0 0 100 100" xmlns="http://www.w3.org/2000/svg"><defs><clipPath id="c18"><circle cx="50" cy="50" r="50"/></clipPath></defs><g clip-path="url(#c18)"><circle cx="50" cy="50" r="50" fill="#e0f0fe"/><ellipse cx="50" cy="96" rx="31" ry="20" fill="#7b6d8d"/><rect x="44" y="61" width="12" height="17" rx="3" fill="#eec39a"/><path d="M 27 40 Q 24 58 30 63 L 35 50 Z" fill="#c9cdd4"/><path d="M 73 40 Q 76 58 70 63 L 65 50 Z" fill="#c9cdd4"/><circle cx="50" cy="44" r="22" fill="#eec39a"/><path d="M 28 46 Q 25 19 50 18 Q 75 19 72 46 L 71 37 Q 70 24 50 24 Q 30 24 29 37 Z" fill="#c9cdd4"/><path d="M 34 26 Q 44 21 52 25 Q 43 24 36 30 Z" fill="#e4e7ec"/><circle cx="43" cy="43" r="3" fill="#555"/><circle cx="57" cy="43" r="3" fill="#555"/><circle cx="44.5" cy="41.5" r="1.2" fill="white" opacity="0.8"/><circle cx="58.5" cy="41.5" r="1.2" fill="white" opacity="0.8"/><path d="M 44 53 Q 50 59 56 53" stroke="#c68a5f" stroke-width="1.8" fill="none" stroke-linecap="round"/></g></svg>