<svg viewBox="0 0 100 100" xmlns="http://www.w3.org/2000/svg"><defs><clipPath id="c6"><circle cx="50" cy="50" r="50"/></clipPath></defs><g clip-path="url(#c6)"><circle cx="50" cy="50" r="50" fill="#0142aa"/><ellipse cx="50" cy="96" rx="31" ry="20" fill="#f4f9ff"/><rect x="44" y="61" width="12" height="17" rx="3" fill="#d4a574"/><circle cx="50" cy="44" r="22" fill="#d4a574"/><rect x="29" y="21" width="42" height="14" rx="7" fill="#2c1a0e"/><rect x="28" y="27" width="7" height="17" rx="3" fill="#2c1a0e"/><rect x="65" y="27" width="7" height="17" rx="3" fill="#2c1a0e"/><circle cx="43" cy="43" r="6" fill="none" stroke="white" stroke-width="2"/><circle cx="57" cy="43" r="6" fill="none" stroke="white" stroke-width="2"/><line x1="49" y1="43" x2="51" y2="43" stroke="white" stroke-width="2"/><line x1="37" y1="43" x2="31" y2="46" stroke="white" stroke-width="1.5"/><line x1="63" y1="43" x2="69" y2="46" stroke="white" stroke-width="1.5"/><circle cx="43" cy="43" r="2.5" fill="#2c1a0e"/><circle cx="57" cy="43" r="2.5" fill="#2c1a0e"/><circle cx="44.5" cy="41.5" r="1" fill="white" opacity="0.7"/><circle cx="58.5" cy="41.5" r="1" fill="white" opacity="0.7"/><path d="M 44 54 Q 50 60 56 54" stroke="#9b6040" stroke-width="1.8" fill="none" stroke-linecap="round"/></g></svg>