<svg viewBox="0 0 100 100" xmlns="http://www.w3.org/2000/svg"><defs><clipPath id="c14"><circle cx="50" cy="50" r="50"/></clipPath></defs><g clip-path="url(#c14)"><circle cx="50" cy="50" r="50" fill="#bfdffc"/><ellipse cx="50" cy="96" rx="31" ry="20" fill="#2a9d8f"/><rect x="44" y="61" width="12" height="17" rx="3" fill="#e8b88a"/><circle cx="50" cy="44" r="22" fill="#e8b88a"/><path d="M 30 50 Q 30 66 50 66 Q 70 66 70 50 L 70 56 Q 70 72 50 72 Q 30 72 30 56 Z" fill="#5b3a1e"/><path d="M 44 56 Q 50 59 56 56 L 56 59 Q 50 62 44 59 Z" fill="#5b3a1e"/><rect x="29" y="20" width="42" height="14" rx="7" fill="#5b3a1e"/><rect x="28" y="26" width="7" height="15" rx="3" fill="#5b3a1e"/><rect x="65" y="26" width="7" height="15" rx="3" fill="#5b3a1e"/><circle cx="43" cy="42" r="3" fill="#3a2a1a"/><circle cx="57" cy="42" r="3" fill="#3a2a1a"/><circle cx="44.5" cy="40.5" r="1.2" fill="white" opacity="0.8"/><circle cx="58.5" cy="40.5" r="1.2" fill="white" opacity="0.8"/></g></svg>